<svg xmlns="http://www.w3.org/2000/svg" xmlns:xlink="http://www.w3.org/1999/xlink" width="64.08" height="31.7" viewBox="0 0 64.08 31.7">
  <defs>
    <linearGradient id="linear-gradient" x1="0.5" x2="0.5" y2="1" gradientUnits="objectBoundingBox">
      <stop offset="0" stop-color="#00b8f1"/>
      <stop offset="0.016" stop-color="#00b5ef"/>
      <stop offset="0.308" stop-color="#0d90d8"/>
      <stop offset="0.578" stop-color="#1675c8"/>
      <stop offset="0.817" stop-color="#1c64be"/>
      <stop offset="1" stop-color="#1e5fbb"/>
    </linearGradient>
  </defs>
  <g id="Group_200" data-name="Group 200" transform="translate(-10.262 -21.161)">
    <g id="Group_199" data-name="Group 199">
      <g id="Group_198" data-name="Group 198">
        <path id="Path_106" data-name="Path 106" d="M10.262,52.862H42.648l31.695-31.7H10.262v31.7" fill-rule="evenodd" fill="url(#linear-gradient)"/>
      </g>
      <path id="Path_107" data-name="Path 107" d="M48.291,27.122l-6.308,0v15l-5.511-15H31.009L26.3,39.661c-.5-3.163-3.772-4.255-6.346-5.074-1.7-.545-3.5-1.348-3.486-2.235.014-.729.967-1.405,2.856-1.3a10.3,10.3,0,0,1,4.616,1.244l2.192-3.816a17.047,17.047,0,0,0-7.146-1.691h-.013a8.681,8.681,0,0,0-6.31,2.3,5.325,5.325,0,0,0-1.509,3.68,4.938,4.938,0,0,0,2.166,4.4,14.714,14.714,0,0,0,4.289,1.962c1.752.543,3.181,1.014,3.164,2.02a1.487,1.487,0,0,1-.415.985,2.773,2.773,0,0,1-2.033.637,8.723,8.723,0,0,1-5.223-1.49l-1.948,3.87a14.575,14.575,0,0,0,7.141,1.9l.327,0a8.616,8.616,0,0,0,5.428-1.82c.082-.065.155-.132.231-.2l-.633,1.69h5.73l.962-2.925a10.465,10.465,0,0,0,3.368.534A10.6,10.6,0,0,0,37,43.827l.927,2.9h9.344V40.668h2.037c4.929,0,7.842-2.51,7.842-6.714C57.15,29.271,54.318,27.122,48.291,27.122ZM33.712,39.955a5.767,5.767,0,0,1-2.021-.353l2-6.308h.038l1.965,6.325A5.915,5.915,0,0,1,33.712,39.955Zm14.949-3.624h-1.39V31.248h1.39c1.853,0,3.331.616,3.331,2.508,0,1.958-1.478,2.575-3.331,2.575" fill="#fff" fill-rule="evenodd"/>
    </g>
  </g>
</svg>
