<?xml version="1.0" encoding="UTF-8"?>
<svg width="60px" height="45px" viewBox="0 0 60 45" version="1.1" xmlns="http://www.w3.org/2000/svg" xmlns:xlink="http://www.w3.org/1999/xlink">
    <!-- Generator: Sketch 52.6 (67491) - http://www.bohemiancoding.com/sketch -->
    <title>menu</title>
    <desc>Created with Sketch.</desc>
    <g id="Page-1" stroke="none" stroke-width="1" fill="none" fill-rule="evenodd">
        <g id="menu" fill="#FFFFFF" fill-rule="nonzero">
            <path d="M57.5,5 L2.5,5 C1.119375,5 0,3.880625 0,2.5 C0,1.119375 1.119375,0 2.5,0 L57.5,0 C58.880625,0 60,1.119375 60,2.5 C60,3.880625 58.880625,5 57.5,5 Z M38.75,22.5 C38.75,21.119375 38.0270703,20 37.1354167,20 L1.61458333,20 C0.722929688,20 0,21.119375 0,22.5 C0,23.880625 0.722929688,25 1.61458333,25 L37.1354167,25 C38.0270703,25 38.75,23.880625 38.75,22.5 Z M60,42.5 C60,41.119375 58.880625,40 57.5,40 L2.5,40 C1.119375,40 0,41.119375 0,42.5 C0,43.880625 1.119375,45 2.5,45 L57.5,45 C58.880625,45 60,43.880625 60,42.5 Z" id="Menu"></path>
        </g>
    </g>
</svg>